<svg id="visual" viewBox="0 0 900 600" width="900" height="600" xmlns="http://www.w3.org/2000/svg" xmlns:xlink="http://www.w3.org/1999/xlink" version="1.1"><path d="M0 390L30 377.2C60 364.3 120 338.7 180 332.8C240 327 300 341 360 335.3C420 329.7 480 304.3 540 303.7C600 303 660 327 720 345.3C780 363.7 840 376.3 870 382.7L900 389L900 601L870 601C840 601 780 601 720 601C660 601 600 601 540 601C480 601 420 601 360 601C300 601 240 601 180 601C120 601 60 601 30 601L0 601Z" fill="#f4f4f5"></path><path d="M0 336L30 350C60 364 120 392 180 402.8C240 413.7 300 407.3 360 399.7C420 392 480 383 540 374.7C600 366.3 660 358.7 720 359.8C780 361 840 371 870 376L900 381L900 601L870 601C840 601 780 601 720 601C660 601 600 601 540 601C480 601 420 601 360 601C300 601 240 601 180 601C120 601 60 601 30 601L0 601Z" fill="#dddfed"></path><path d="M0 384L30 383.5C60 383 120 382 180 393.8C240 405.7 300 430.3 360 427.2C420 424 480 393 540 390.7C600 388.3 660 414.7 720 418.5C780 422.3 840 403.7 870 394.3L900 385L900 601L870 601C840 601 780 601 720 601C660 601 600 601 540 601C480 601 420 601 360 601C300 601 240 601 180 601C120 601 60 601 30 601L0 601Z" fill="#c2cae6"></path><path d="M0 486L30 479.3C60 472.7 120 459.3 180 457.2C240 455 300 464 360 462C420 460 480 447 540 438.7C600 430.3 660 426.7 720 421.8C780 417 840 411 870 408L900 405L900 601L870 601C840 601 780 601 720 601C660 601 600 601 540 601C480 601 420 601 360 601C300 601 240 601 180 601C120 601 60 601 30 601L0 601Z" fill="#a5b7df"></path><path d="M0 472L30 476.8C60 481.7 120 491.3 180 496C240 500.7 300 500.3 360 498.2C420 496 480 492 540 494.2C600 496.3 660 504.7 720 506.8C780 509 840 505 870 503L900 501L900 601L870 601C840 601 780 601 720 601C660 601 600 601 540 601C480 601 420 601 360 601C300 601 240 601 180 601C120 601 60 601 30 601L0 601Z" fill="#84a5d7"></path><path d="M0 506L30 504.5C60 503 120 500 180 503.5C240 507 300 517 360 515.5C420 514 480 501 540 494.7C600 488.3 660 488.7 720 492.8C780 497 840 505 870 509L900 513L900 601L870 601C840 601 780 601 720 601C660 601 600 601 540 601C480 601 420 601 360 601C300 601 240 601 180 601C120 601 60 601 30 601L0 601Z" fill="#5a94d0"></path><path d="M0 572L30 566.3C60 560.7 120 549.3 180 545.2C240 541 300 544 360 549.7C420 555.3 480 563.7 540 568.5C600 573.3 660 574.7 720 574.8C780 575 840 574 870 573.5L900 573L900 601L870 601C840 601 780 601 720 601C660 601 600 601 540 601C480 601 420 601 360 601C300 601 240 601 180 601C120 601 60 601 30 601L0 601Z" fill="#0284c7"></path></svg>