<svg id="visual" viewBox="0 0 900 600" width="900" height="600" xmlns="http://www.w3.org/2000/svg" xmlns:xlink="http://www.w3.org/1999/xlink" version="1.1"><path d="M0 208L30 220.8C60 233.7 120 259.3 180 265.2C240 271 300 257 360 262.7C420 268.3 480 293.7 540 294.3C600 295 660 271 720 252.7C780 234.3 840 221.7 870 215.3L900 209L900 0L870 0C840 0 780 0 720 0C660 0 600 0 540 0C480 0 420 0 360 0C300 0 240 0 180 0C120 0 60 0 30 0L0 0Z" fill="#f4f4f5"></path><path d="M0 262L30 248C60 234 120 206 180 195.2C240 184.3 300 190.7 360 198.3C420 206 480 215 540 223.3C600 231.7 660 239.3 720 238.2C780 237 840 227 870 222L900 217L900 0L870 0C840 0 780 0 720 0C660 0 600 0 540 0C480 0 420 0 360 0C300 0 240 0 180 0C120 0 60 0 30 0L0 0Z" fill="#dddfed"></path><path d="M0 214L30 214.5C60 215 120 216 180 204.2C240 192.3 300 167.7 360 170.8C420 174 480 205 540 207.3C600 209.7 660 183.3 720 179.5C780 175.7 840 194.3 870 203.7L900 213L900 0L870 0C840 0 780 0 720 0C660 0 600 0 540 0C480 0 420 0 360 0C300 0 240 0 180 0C120 0 60 0 30 0L0 0Z" fill="#c2cae6"></path><path d="M0 112L30 118.7C60 125.3 120 138.7 180 140.8C240 143 300 134 360 136C420 138 480 151 540 159.3C600 167.7 660 171.3 720 176.2C780 181 840 187 870 190L900 193L900 0L870 0C840 0 780 0 720 0C660 0 600 0 540 0C480 0 420 0 360 0C300 0 240 0 180 0C120 0 60 0 30 0L0 0Z" fill="#a5b7df"></path><path d="M0 126L30 121.2C60 116.3 120 106.7 180 102C240 97.3 300 97.7 360 99.8C420 102 480 106 540 103.8C600 101.7 660 93.3 720 91.2C780 89 840 93 870 95L900 97L900 0L870 0C840 0 780 0 720 0C660 0 600 0 540 0C480 0 420 0 360 0C300 0 240 0 180 0C120 0 60 0 30 0L0 0Z" fill="#84a5d7"></path><path d="M0 92L30 93.5C60 95 120 98 180 94.5C240 91 300 81 360 82.5C420 84 480 97 540 103.3C600 109.7 660 109.3 720 105.2C780 101 840 93 870 89L900 85L900 0L870 0C840 0 780 0 720 0C660 0 600 0 540 0C480 0 420 0 360 0C300 0 240 0 180 0C120 0 60 0 30 0L0 0Z" fill="#5a94d0"></path><path d="M0 26L30 31.7C60 37.3 120 48.7 180 52.8C240 57 300 54 360 48.3C420 42.7 480 34.3 540 29.5C600 24.7 660 23.3 720 23.2C780 23 840 24 870 24.5L900 25L900 0L870 0C840 0 780 0 720 0C660 0 600 0 540 0C480 0 420 0 360 0C300 0 240 0 180 0C120 0 60 0 30 0L0 0Z" fill="#0284c7"></path></svg>